<?xml version="1.0" encoding="UTF-8"?>
<svg id="Calque_2" data-name="Calque 2" xmlns="http://www.w3.org/2000/svg" viewBox="0 0 786.6 718.27">
  <g id="Calque_1-2" data-name="Calque 1">
    <path d="M166.49,503.33c47.33,0,94.66,0,141.99,0,13.99,0,24.52,10.53,24.52,24.6,.02,53.5,.02,106.99,0,160.49,0,13.71-10.85,24.87-24.52,24.88-94.66,.05-189.32,.06-283.97,0-13.85,0-24.49-10.96-24.5-24.78,0-53.83,0-107.66,0-161.49,0-13.73,10.11-23.69,23.99-23.69,47.5,0,94.99,0,142.49,0Zm.25,10.19c-46.33,0-92.66,0-138.99,0-12.43,0-17.67,5.12-17.68,17.44-.02,51.16-.01,102.32-.02,153.49,0,12.98,5.51,18.49,18.46,18.49,91.49,0,182.98,0,274.47-.02,1.99,0,4-.05,5.98-.31,8.85-1.16,13.74-6.5,13.75-15.38,.04-52.33,.04-104.66-.03-156.99-.01-11.34-5.6-16.7-16.95-16.7-46.33,0-92.66,0-138.99-.01Z"/>
    <path d="M166.26,1.15C250.05,.02,321.61,69.95,321.25,155.65c-.38,91.32-75.49,155.33-153.71,155.91-80.56,.6-155.98-63.02-156.41-155.66C10.73,68.87,82.56-.67,166.26,1.15ZM21.68,155.95c.28,80.46,62.28,143.36,141.76,145.04,77.86,1.64,144.79-58.66,147.35-140.77,2.59-82.92-62.02-145.86-140.02-148.76C88.57,8.4,21.62,73.99,21.68,155.95Z"/>
    <path d="M580.42,.34c27.25,0,54.11-.91,80.89,.26,26.08,1.14,45.64,22.26,45.95,47.15,.34,27.29-21.05,46.69-44.06,49.45-10.85,1.3-21.91,.96-32.88,1.09-15.84,.19-27.02,10.98-27.34,26.77-.1,4.82-.02,9.65-.02,15.27h-22.55V.34Zm22.73,83.78c9.69-6.5,20.24-6.91,30.9-7.19,9.12-.24,18.34-.29,27.31-1.71,14-2.22,22.92-13.67,22.54-27.32-.38-13.44-9.63-24.27-23.94-25.38-16.38-1.28-32.89-.87-49.34-1.18-2.44-.05-4.88,0-7.46,0v62.79Z"/>
    <path d="M717.59,518.42c-2.6-2.6-4.94-4.94-7.18-7.18,8.64-8.72,17.13-17.3,25.63-25.88-.18-.3-.36-.6-.54-.9-2.98,1.35-5.99,2.64-8.95,4.06-7.18,3.44-14.36,6.9-21.49,10.45-2.08,1.03-3.79,1.67-5.61-.57-1.53-1.89-3.37-3.12-2.09-6.28,4.28-10.54,8.17-21.25,11.73-30.65-7.51,6.79-15.93,14.4-24.59,22.23-1.41-1.82-3.42-4.41-5.51-7.11,11.49-11.12,23.88-23.12,36.5-35.33-.8-.48-.48-.36-.26-.15q9.4,9.04,4.57,21.12c-3.26,8.12-6.6,16.2-10.41,25.56,10.19-5.59,19.55-10.31,28.45-15.79,4.37-2.69,7.2-2.87,10.2,1.5,1.58,2.3,3.81,4.17,6.13,6.64-12.16,12.71-24.3,25.4-36.59,38.25Z"/>
    <path d="M741.85,176.33v51.49h-9.82v-31.57c-.35-.08-.71-.17-1.06-.25-3.22,7.98-6.55,15.93-9.61,23.98-.99,2.6-2.43,4.14-5.07,3.25-1.71-.57-3.81-1.8-4.5-3.3-3.5-7.66-6.6-15.51-10.4-24.63v32.47h-10.36v-51.44c3.62,0,7.26-.3,10.8,.16,1.28,.17,2.79,1.96,3.38,3.36,3.77,8.98,7.3,18.05,11.3,28.05,3.35-9.13,6.66-17.32,9.29-25.72,1.41-4.52,3.46-6.69,8.35-5.92,2.4,.38,4.9,.07,7.7,.07Z"/>
    <path d="M592.84,197.19v30.66h-10.64v-50.84c8.93-1.96,9.89-1.59,14.57,5.55,5.62,8.58,11.26,17.15,16.89,25.72,.07,.11,.29,.13,.71,.31v-31.99h10.25v50.99c-9.44,1.67-9.56,1.6-14.51-5.95-5.42-8.27-10.89-16.51-16.33-24.77-.31,.11-.63,.22-.94,.32Z"/>
    <path d="M582.63,478.15c-3.18,1.43-6.04,2.71-9.67,4.34-6.56-16.01-13.06-31.88-19.72-48.15,2.94-1.31,5.83-2.93,8.93-3.81,1.36-.39,3.45,.3,4.68,1.2,10.01,7.37,19.91,14.91,31.01,23.29-4.68-11.97-8.89-22.74-13.22-33.82,3.24-1.29,6.1-2.44,9.59-3.83,6.41,16.2,12.78,32.28,19.26,48.66-3.26,1.39-6.21,3.01-9.36,3.81-1.37,.35-3.42-.66-4.73-1.64-9.96-7.48-19.82-15.1-30.4-22.27,4.48,10.59,8.95,21.17,13.63,32.24Z"/>
    <path d="M736.08,607.28c14.49,.03,27.59,12.21,27.77,25.8,.18,13.85-11.79,25.76-25.71,25.6-14.89-.17-28.16-12.51-28.07-26.1,.08-13.78,11.96-25.33,26.02-25.3Zm2.92,40.31c7.85,0,13.17-5.27,13.14-13.01-.03-8.84-7.24-16.11-16.11-16.24-8-.12-14.5,5.71-14.64,13.13-.16,8.23,8.47,16.13,17.61,16.13Z"/>
    <path d="M656.68,717.48c-5.23-16.62-10.37-32.93-15.61-49.58,7.51-2.17,14.69-4.68,22.07-6.27,11.46-2.46,23.15,5.86,26.68,18.74,4.24,15.45-1.13,28.31-17.23,32.32-5.26,1.31-10.41,3.11-15.91,4.79Zm-2.47-43.22c3.02,9.4,5.89,18.49,8.92,27.51,.35,1.03,1.52,2.35,2.49,2.52,4.73,.81,13.2-4.97,14.09-9.93,1.41-7.86-.82-14.95-6.77-20.27-5.99-5.35-12.29-2.25-18.72,.17Z"/>
    <path d="M769,272.33c-.02,16.2-9.37,26.02-24.78,26-15.27-.02-24.91-10.43-24.76-26.73,.15-15.61,9.97-25.87,24.71-25.84,15.47,.04,24.84,10.06,24.83,26.57Zm-38.5,.18c.83,3.1,1.32,6.43,2.61,9.41,2.11,4.88,6.37,7.27,11.53,7.3,5.28,.02,9.2-2.72,11.15-7.7,2.32-5.93,2.39-12.02,.23-18.01-2.02-5.59-5.98-8.24-11.71-8.24-5.63,0-9.74,2.75-11.69,8.29-.98,2.78-1.39,5.75-2.12,8.95Z"/>
    <path d="M646.17,297.36v-51.52c8.57,.57,17.07,.34,25.22,1.91,8.35,1.61,13.87,7.38,15.73,16.05,4.21,19.59-5.47,33.99-25.63,33.57-4.96-.1-9.92-.02-15.33-.02Zm11.37-41.71v32.51c13.63,.75,18.96-4.05,18.79-16.56-.17-11.99-6.18-17.16-18.79-15.95Z"/>
    <path d="M575.14,228.09h-12.72c-1.24-3.3-2.55-6.79-4.04-10.75-5.06,0-10.38-.12-15.68,.1-1.15,.05-2.75,1.09-3.26,2.11-1.23,2.5-1.9,5.27-2.89,7.9-.13,.33-.81,.63-1.24,.64-3.47,.05-6.94,.03-11.1,.03,1.7-4.45,3.23-8.43,4.73-12.41,4.42-11.77,9.1-23.45,13.12-35.36,1.73-5.13,5.31-3.71,8.73-4.06,3.5-.35,5.13,.85,6.39,4.34,5.68,15.69,11.77,31.23,17.96,47.47Zm-19.35-19.6c-2.1-6.54-4.05-12.61-6.27-19.52-2.32,6.97-4.35,13.09-6.49,19.52h12.76Z"/>
    <path d="M632.69,228.14c5.12-13.47,10.05-26.42,14.96-39.37,.88-2.32,1.89-4.62,2.5-7.01,1.1-4.32,3.46-5.74,8.08-5.64,4.32,.1,6.35,1.24,7.83,5.4,5.15,14.51,10.75,28.86,16.17,43.27,.34,.9,.58,1.83,1.05,3.35-2.04,0-3.68-.26-5.21,.05-5.85,1.15-9-1.34-9.85-7.02-.45-3.03-2.01-4.31-5.1-3.87-1.31,.19-2.68,.17-3.99,0-6.82-.85-12.48-.13-13.28,8.55-.08,.85-1.99,2.07-3.14,2.18-3.09,.31-6.23,.1-10,.1Zm31.49-19.82c-2.11-6.57-4.06-12.65-6.28-19.55-2.2,7.07-4.09,13.12-6.1,19.55h12.37Z"/>
    <path d="M671,474.33c-4.44-.77-7.99-1.38-11.4-1.97q-1.66-10.47-11.81-12.65c-3.07-.65-6.17-1.18-9.49-1.81-1.6,3.07-3.12,5.98-4.88,9.35-3.43-.67-6.96-1.35-10.96-2.13,8.47-15.64,16.71-30.96,25.12-46.17,.5-.9,2.44-1.37,3.73-1.39,1.79-.03,3.6,.85,5.39,.8,2.93-.08,3.84,1.06,4.36,3.96,3.1,17.12,6.5,34.18,9.94,52.01Zm-18.54-42.9c-3.42,6.53-6.21,11.84-9.16,17.47,4.65,.89,8.46,1.61,12.98,2.47-1.27-6.63-2.43-12.66-3.82-19.95Z"/>
    <path d="M757.14,551.73c-3.41,.68-6.27,1.25-9.4,1.87-1.58-6.32-3.04-12.2-4.58-18.38-3.59,.79-6.76,1.49-10.37,2.29,1.69,7.87,3.3,15.41,4.97,23.19-3.37,.8-6.54,1.56-10.16,2.42-2.5-11.12-4.97-22.06-7.58-33.65,17.12-3.7,34.19-7.4,51.89-11.23,2.35,10.83,4.66,21.45,7.05,32.45-3.18,.66-6.18,1.29-9.63,2.01-1.75-7.24-3.45-14.29-5.31-21.98-3.63,.78-7.05,1.52-10.71,2.3,1.34,6.54,2.55,12.47,3.82,18.7Z"/>
    <path d="M505.33,478.72c.1-.34,.11-.52,.2-.65q6.28-8.79,16.27-5.22c14.17,5.07,28.35,10.14,43,15.38-1.96,3.13-3.75,5.97-5.49,8.74-4.94-.86-9.65-6.74-14.22,.52-2.19,3.48-6.86,6.17-7.42,9.69-.52,3.28,2.93,7.18,4.85,11.27-1.69,2.12-3.75,4.71-6.3,7.9-10.43-16.08-20.69-31.91-30.89-47.64Zm14.35,3.67c4.06,6.21,7.5,11.46,11.13,17,2.87-3.42,5.44-6.48,8.27-9.85-6.5-2.39-12.34-4.55-19.4-7.15Z"/>
    <path d="M593.61,663.18c3.59,.78,6.77,1.48,10.08,2.2-1.72,10.91-3.42,21.35-4.99,31.8-.92,6.14,1.76,10.2,7.11,11.14,5.95,1.04,9.93-1.43,11.22-7.74,1.92-9.41,3.39-18.91,5.07-28.37,.2-1.11,.5-2.2,.83-3.63,3.4,.57,6.57,1.1,10.24,1.72-1.22,8.38-2.36,16.38-3.58,24.37-.42,2.78-.97,5.54-1.54,8.3-2.31,11.14-7.69,15.43-19.08,15.3-11.37-.13-20.85-6.63-21.63-15.92-.45-5.32,.92-10.84,1.75-16.22,.98-6.38,2.25-12.71,3.43-19.06,.21-1.12,.61-2.2,1.1-3.88Z"/>
    <path d="M623.58,246.59h10.38c0,12.53,.32,24.81-.14,37.06-.21,5.62-3.91,9.93-8.99,12.31-7.25,3.38-14.81,3.54-22.15,.2-5.39-2.46-8.6-6.86-8.69-12.87-.18-12.12-.05-24.24-.05-36.65h10.88c0,5.85,0,11.77,0,17.7,0,4.99-.09,9.99,.04,14.98,.17,6.69,3.1,9.53,9.45,9.41,5.93-.11,8.65-3.08,8.69-9.63,.06-10.48,.06-20.96,.11-31.45,0-.29,.25-.57,.47-1.05Z"/>
    <path d="M508.18,628.16c-4.42,6.81-4.68,12.53-.25,16.59,1.68,1.53,4.91,2.62,6.96,2.08,1.45-.38,3.05-3.86,2.94-5.87-.24-4.41-1.46-8.78-2.39-13.14-1.36-6.45,.67-12.12,5.59-15.31,5.44-3.52,12.83-3.46,17.82,.13,8.49,6.11,13.18,20.68,3.08,30.83-1.31-1.09-2.64-2.25-4.02-3.33-2.24-1.74-2.49-3.4-.71-5.87,3.09-4.3,1.88-8.84-1.33-12.24-1.55-1.64-5.21-2.61-7.29-1.95-1.37,.44-2.39,4.42-2.2,6.7,.44,5.24,1.96,10.38,2.58,15.61,.71,6-1.77,10.73-7.04,13.74-5.54,3.17-11.07,2.8-16.49-.51-10-6.11-13.28-20.55-7.1-30.15,2.43-3.78,4.43-3.97,7.04-.44,.78,1.06,1.76,1.97,2.81,3.12Z"/>
    <path d="M540.37,260.17h-10.36c-3.11-5.43-6.37-7.24-10.33-5.14-1.54,.81-3.29,2.72-3.42,4.26-.12,1.49,1.34,3.88,2.75,4.59,3.81,1.93,8.04,3.01,11.98,4.72,8.45,3.65,12.09,9.93,9.88,18.16-.79,2.95-2.88,6.19-5.35,7.92-7.03,4.92-14.94,5.02-22.72,1.76-5.82-2.44-8.05-6.98-7.64-14.84,2.04,0,4.14,.09,6.23-.02,2.41-.14,3.82,.41,4.67,3.13,1.58,5.05,8.92,6.41,12.62,2.63,2.62-2.67,2.02-7.04-1.57-8.71-3.74-1.74-7.79-2.77-11.61-4.35-7.79-3.21-11.4-8.39-10.34-16.16,.41-3.01,2.18-6.42,4.41-8.47,5.6-5.15,17.97-5.57,24.47-1.53,4.24,2.63,5.77,5.46,6.32,12.05Z"/>
    <path d="M488.44,175.9c8.31,.46,16.47,.33,24.43,1.53,8.15,1.23,12.47,8.03,12.07,16.87-.4,8.87-5.23,14.75-13.37,15.97-3.76,.56-7.58,.75-11.89,1.16v16.41h-11.24v-51.94Zm11.42,25.83c4.6,.09,9.76,1.29,12.13-3.41,1.32-2.63,1.15-7.14-.27-9.76-2.38-4.39-7.33-3.25-11.86-3.04v16.22Z"/>
    <path d="M754.51,176.49h31.16v9.2h-19.34v11.6h16.44v8.87h-16.46v12.05h20.3v9.69h-32.1v-51.4Z"/>
    <path d="M479.01,549.84c1.69-7.19,3.21-14.12,4.97-20.98,2.38-9.27,8.4-12.83,18.95-11.47,8.91,1.15,14.88,7.37,14.68,15.94-.1,4.42-1.12,8.83-1.77,13.52,5.63,1.1,11.11,2.17,17.07,3.34-.81,3.46-1.55,6.6-2.4,10.21-17.23-3.53-34.21-7.01-51.51-10.56Zm26.58-5.07c.52-4.08,1.15-7.63,1.39-11.2,.25-3.8-2.06-5.68-5.57-6.31-3.7-.66-6.18,.99-7.2,4.44-.97,3.26-1.49,6.66-2.28,10.29,4.46,.91,8.62,1.75,13.65,2.78Z"/>
    <path d="M562.11,655.7c-4.21-3.05-8.09-5.85-12.1-8.74,1.82-2.65,3.49-5.09,5.45-7.95,10.75,7.07,21.32,14.03,32.19,21.18-1.74,2.87-3.34,5.5-5.25,8.65-3.66-2.32-7.08-4.49-10.86-6.88-7.91,11.51-15.67,22.82-23.69,34.5-2.99-2.26-5.84-4.41-9.11-6.88,7.74-11.22,15.42-22.35,23.38-33.88Z"/>
    <path d="M585.81,246.74v8.36h-13.7v41.97h-10.97v-41.53h-13.68v-8.8h38.35Z"/>
    <path d="M687.12,649.4c2.85-2.25,5.56-4.4,8.77-6.95,10.14,13.82,20.19,27.53,30.56,41.66-3.1,2.27-5.98,4.37-9.22,6.74-10-13.77-19.89-27.39-30.11-41.46Z"/>
    <path d="M698.45,246.45h10.6v50.58h-10.6v-50.58Z"/>
    <path d="M219.36,570.7v32.23h-9.33v-53.98c3.54,0,7.18-.31,10.7,.17,1.21,.17,2.69,2.15,3.13,3.58,2.53,8.21,4.78,16.5,7.15,24.76,.31,1.09,.74,2.16,1.45,4.19,2.98-10.3,5.91-19.64,8.29-29.12,.74-2.94,1.81-3.84,4.62-3.67,2.98,.19,5.97,.04,9.29,.04v54.17h-9.4v-31.23c-.32-.06-.65-.12-.97-.18-2.42,7.65-4.86,15.3-7.26,22.96-.76,2.44-.8,5.02-4.73,5-3.73-.02-3.69-2.5-4.41-4.73-2.63-8.12-5.25-16.25-7.87-24.37l-.67,.16Z"/>
    <path d="M147.79,579.41v-30.09h9.82v53.44q-9.17,1.61-13.36-6.4c-4.07-7.78-8.17-15.55-13.05-23.28v30.02h-9.85v-53.58c9.21-1.61,9.41-1.52,13.58,6.61,4,7.8,8,15.61,11.99,23.41,.29-.04,.58-.08,.86-.13Z"/>
    <path d="M175.2,672.36v-54.44c10.99,.66,23.43-3.29,30.87,7.74,7.67,11.36,7.59,24.72,1.39,36.59-6.75,12.92-20.13,9.66-32.26,10.12Zm11.07-44.44v34.09c8.53,.73,13.22-3.08,13.7-11.21,.22-3.8,.21-7.64,0-11.44-.47-8.2-4.94-11.92-13.69-11.44Z"/>
    <path d="M276.25,645.09c-1.4,6.14-2.12,11.94-4.08,17.29-2.62,7.17-8.63,10.18-16.1,10.31-7.37,.13-13.82-2.24-16.82-9.26-5.32-12.43-5.32-25.26,.53-37.51,3.36-7.05,10.08-9.09,17.65-8.6,6.77,.44,12.04,3.7,14.42,9.78,2.25,5.74,3.01,12.07,4.4,18Zm-11.43,.17c-.84-4.21-1.24-9.07-2.95-13.43-.79-2.03-4.03-4.09-6.31-4.26-2.02-.15-5.34,1.79-6.19,3.66-3.89,8.63-3.92,17.78-.68,26.55,.84,2.28,4.69,4.79,7.12,4.76,2.39-.03,5.8-2.68,6.86-5.04,1.56-3.46,1.44-7.69,2.14-12.24Z"/>
    <path d="M156.97,618h10.29c0,2.42,.01,4.84,0,7.26-.07,10.66,.04,21.32-.29,31.97-.3,9.62-7.24,15.78-17.39,16-9.6,.21-17.06-5.41-17.48-14.66-.61-13.4-.16-26.85-.16-40.53h10.19c0,10.98-.05,21.91,.04,32.85,.02,2.46-.12,5.29,1,7.28,1.2,2.13,3.79,4.8,5.8,4.81,2.34,.02,5.25-2.15,6.85-4.19,1.23-1.57,1.09-4.42,1.11-6.71,.1-11.29,.04-22.58,.04-34.07Z"/>
    <path d="M163,603.11c4.8-18.02,9.54-35.84,14.35-53.89h13.23c4.59,17.85,9.17,35.68,13.91,54.1-3.03,0-5.5-.15-7.94,.04-2.83,.22-4.23-.69-4.64-3.7-.32-2.38-.97-6.32-2.27-6.67-3.57-.97-7.55-.55-11.35-.35-.65,.03-1.47,1.58-1.76,2.56-.74,2.52-1.22,5.11-1.86,7.91h-11.66Zm21.23-40.44c-.26,.03-.51,.06-.77,.09-1.43,6.67-2.86,13.34-4.35,20.28h9.33c-1.45-7.01-2.84-13.69-4.22-20.38Z"/>
    <path d="M115.36,603.17h-11.03c-.91-3.4-1.84-6.84-2.81-10.48-1.54-.07-3.02-.2-4.49-.2-7.99,.01-7.87,.06-10.18,7.84-.37,1.24-2.22,2.63-3.57,2.87-2.57,.46-5.28,.13-8.54,.13,1.55-6.17,2.91-11.9,4.42-17.58,2.88-10.87,5.96-21.68,8.69-32.59,.77-3.06,1.77-4.42,5.23-4.28,10.83,.43,8.21-1.53,10.9,8.5,3.72,13.89,7.19,27.84,10.74,41.78,.32,1.25,.42,2.55,.65,4.01Zm-19.71-39.84c-.26-.08-.51-.16-.77-.24-1.37,6.59-2.74,13.17-4.12,19.84h9.02c-1.43-6.77-2.78-13.19-4.13-19.61Z"/>
    <path d="M56.43,654.68h10.13c.16,.99,0,2.12,.5,2.78,1.55,2.07,3.02,4.85,5.16,5.63,1.58,.58,5.01-.96,6.08-2.58,1.92-2.89,.94-6.3-2.04-8.29-3.56-2.38-7.43-4.31-11.19-6.38-5.86-3.22-9.05-8.31-7.84-14.75,.73-3.89,2.9-8.35,5.88-10.8,5.34-4.4,12.21-4.12,18.46-1.6,6.14,2.47,7.99,7.96,8.1,14.43h-10.27c-.22-1-.09-2.49-.75-3.06-1.66-1.41-3.63-3.21-5.55-3.31-1.6-.09-4.4,1.79-4.71,3.22-.39,1.83,.58,4.87,2.04,5.98,3.12,2.37,6.98,3.74,10.44,5.69,7.56,4.28,10.82,11.85,8.68,19.81-2.19,8.12-10.41,13.13-18.94,11.53-10.5-1.96-15.31-8.01-14.17-18.29Z"/>
    <path d="M53.62,584.36v18.68h-10.63v-53.59c7.04,0,14.36-.59,21.52,.19,5.68,.62,9.5,4.71,10.38,10.58,.51,3.41,.58,6.97,.25,10.41-.81,8.45-6.23,13.35-14.78,13.71-2.12,.09-4.24,.01-6.75,.01Zm-.08-27.48v18.85c3.67-1.23,8.09-1.4,9.46-3.53,1.62-2.53,1.83-7.43,.38-10.02-1.37-2.44-5.69-3.23-9.84-5.3Z"/>
    <path d="M287.78,571.34v8.89h-13.89v13.09h15.81v9.77h-26.21v-53.78h26.1v9.45h-15.71v12.58h13.91Z"/>
    <path d="M116.25,672.11h-11.17v-43.86h-9.94v-10.27h30.77v9.76h-9.66v44.37Z"/>
    <path d="M227.88,672.16h-9.54v-54.09h9.54v54.09Z"/>
    <path d="M247.64,102.65v50.42h-8.49v-28.53c-.34-.06-.68-.11-1.02-.17-2.33,7.46-4.9,14.86-6.88,22.4-.97,3.68-2.49,5.2-6.8,3.79-2.56-8.3-5.25-17.05-8.4-27.27v29.69h-9.49v-50.4h11.87c2.8,9.89,5.65,19.98,8.85,31.31,2.93-11.14,5.52-21.03,8.21-31.25h12.15Z"/>
    <path d="M126.42,102.33c2.29,0,4.39-.41,6.22,.12,1.74,.5,3.88,1.62,4.67,3.1,4.17,7.87,7.97,15.93,12.54,25.24v-28.14h9.58v50.11q-8.55,1.53-12.41-6.09c-3.45-6.86-6.86-13.75-11.06-20.44v26.85h-9.53v-50.75Z"/>
    <path d="M174.31,169.42c6.11,0,12.11-.57,17.95,.15,7.02,.87,12.31,5.41,13.37,12.29,1.19,7.73,1.57,15.88,.49,23.59-1.35,9.66-7.04,14.02-16.62,14.77-4.93,.39-9.91,.07-15.19,.07v-50.86Zm9.99,9.11v31.54c7.72,.56,11.37-1.42,12.29-7.82,.72-5.02,.69-10.33-.09-15.34-1-6.4-4.84-8.67-12.2-8.39Z"/>
    <path d="M229.94,193.97c1.24-5.35,1.97-11.32,4.07-16.76,2.52-6.5,8.16-9.18,15.14-9.13,6.79,.05,12.18,2.81,14.8,9,4.76,11.29,4.8,22.95,.16,34.3-2.71,6.64-8.46,9.86-15.45,9.76-7.18-.1-13-3.54-15.4-10.52-1.74-5.07-2.17-10.59-3.33-16.66Zm10.62,1.06c.57,3.42,.9,7.23,1.91,10.84,.89,3.2,3.31,6.11,6.78,5.2,2.43-.63,5.92-3.32,6.1-5.34,.67-7.43,.64-15.02-.23-22.41-.25-2.1-4.33-5.3-6.5-5.18-2.25,.12-5.18,3.28-6.26,5.78-1.39,3.21-1.22,7.08-1.79,11.11Z"/>
    <path d="M157.01,169.2h10c0,5.49,0,10.91,0,16.33,0,6.16,0,12.31,0,18.47-.01,10.7-5.3,16.79-15.02,17.31-10.04,.54-17.25-5.12-17.76-15.3-.61-12.08-.14-24.22-.14-36.62h10.08c0,10.01-.03,19.95,.02,29.88,.01,2.15,.14,4.32,.48,6.44,.6,3.75,2.57,6.04,6.75,5.68,4.3-.37,5.46-3.38,5.55-6.94,.15-6.32,.05-12.65,.05-18.97,0-5.29,0-10.58,0-16.28Z"/>
    <path d="M201.88,153.17h-10.58c-.83-3.15-1.67-6.29-2.55-9.64h-10.99c-1.03,3.16-1.16,7.54-3.36,9.18-2.12,1.59-6.35,.34-10.1,.34,4.27-16.9,8.51-33.73,12.75-50.51h12.53c4.08,16.79,8.12,33.42,12.3,50.63Zm-18.63-39.25c-1.58,7.62-2.85,13.8-4.15,20.07h8.1c-1.27-6.42-2.46-12.47-3.95-20.07Z"/>
    <path d="M97.2,102.32c1.85,0,3.17,0,4.49,0,2.49,0,4.97,0,7.91,0,4.05,16.86,8.07,33.64,12.17,50.72h-10.49c-.84-3.17-1.68-6.31-2.52-9.46h-10.95q-2.88,10.25-13.21,9.37c4.18-16.83,8.34-33.54,12.59-50.64Zm10.09,31.81c-1.31-6.54-2.5-12.5-3.69-18.45-.21,0-.42,0-.63-.01-1.24,6.09-2.48,12.17-3.76,18.46h8.08Z"/>
    <path d="M66.19,203.49h9.3c.46,1.5,.52,3.2,1.38,4.2,1.28,1.48,3.04,3.19,4.78,3.42,1.48,.2,4.11-1.19,4.64-2.52,.67-1.67,.48-4.83-.67-5.85-2.77-2.47-6.24-4.23-9.57-5.99-8.01-4.24-11.04-10.09-9.27-18.34,1.61-7.49,8.01-11.93,15.51-10.75,9.37,1.47,14,6.76,13.33,15.46h-9.07c-.15-.3-.42-.69-.53-1.12-.81-3.04-2.48-5.33-5.86-4.84-1.27,.19-3.44,2.27-3.25,2.89,.75,2.43,1.79,5.2,3.63,6.78,2.58,2.21,6.09,3.3,9,5.18,7.26,4.67,9.66,13.11,6.17,20.96-2.85,6.42-10.42,9.37-18.79,7.31-7.03-1.73-11.17-8.03-10.71-16.78Z"/>
    <path d="M65.56,137.36v15.68h-10.03v-50.48c6.01,0,12.09-.01,18.17,.02,.47,0,.93,.35,1.41,.49,7.99,2.38,11.19,9.45,9.87,21.83-.78,7.34-6.01,12.1-13.73,12.45-1.65,.07-3.3,.01-5.69,.01Zm.12-8.25c3.66-1.85,7.67-2.58,8.49-4.61,1.13-2.79,.7-6.99-.69-9.76-.89-1.77-4.73-2.07-7.8-3.24v17.61Z"/>
    <path d="M265.16,132.18v11.15h14.12v9.6h-23.91v-50.27h23.91v9.4h-13.92v11.07h12.18v9.06h-12.36Z"/>
    <path d="M109.75,219.91v-41.19h-9.45v-9.37h28.57v8.91c-2.56,.12-5.31,.25-8.66,.41v41.24h-10.46Z"/>
    <path d="M223.75,220.09h-9.5v-50.75h9.5v50.75Z"/>
  </g>
</svg>