<?xml version="1.0" encoding="UTF-8"?>
<svg id="Calque_2" data-name="Calque 2" xmlns="http://www.w3.org/2000/svg" viewBox="0 0 981.75 431.78">
  <g id="Calque_1-2" data-name="Calque 1">
    <path d="M981.67,214.37c.88,22.82-12.23,39.27-36.15,48.2-42.93,16.02-85.68,32.5-128.5,48.78-33.29,12.66-66.58,25.29-99.86,37.95-58.52,22.26-117.04,44.54-175.57,66.8-12,4.56-23.94,9.33-36.07,13.5-11.84,4.08-23.41,1.94-34.86-2.45-33.24-12.75-66.53-25.34-99.83-37.93-38-14.37-76.03-28.68-114.05-43.02-15.51-5.85-31.03-11.68-46.55-17.53-27.25-10.27-54.51-20.51-81.75-30.83-31.91-12.09-63.86-24.1-95.67-36.43-16.34-6.33-28.27-17.3-31.72-35.19-4.46-23.1,4.51-45.92,29.13-55.54,35.81-13.99,71.65-27.89,107.56-41.63,30.41-11.63,60.96-22.9,91.41-34.46,22.76-8.64,45.41-17.56,68.17-26.21,25.41-9.65,50.86-19.19,76.32-28.68,32.06-11.95,64.24-23.57,96.19-35.81,14.23-5.45,27.83-5.06,41.9,.34,29.51,11.33,59.19,22.23,88.8,33.33,34.91,13.08,69.8,26.19,104.72,39.25,21.15,7.91,42.35,15.69,63.48,23.65,24.06,9.07,48.07,18.28,72.11,27.41,26.77,10.17,53.55,20.32,80.32,30.5,10.96,4.17,22.05,8.07,32.81,12.72,15.91,6.86,28.81,22.82,27.66,43.28Zm-965.11,.89c-1.25,15.39,9.05,26.02,21.12,30.56,23.04,8.68,46.1,17.32,69.12,26.06,51.59,19.58,103.15,39.24,154.75,58.79,36.32,13.75,72.7,27.31,109.03,41.05,35.92,13.58,71.82,27.24,107.7,40.95,8.8,3.36,17.41,3.73,26.33,.24,19.67-7.7,39.47-15.1,59.19-22.66,31.31-12.01,62.58-24.14,93.93-36.04,26.57-10.09,53.27-19.85,79.85-29.89,31.13-11.76,62.18-23.7,93.29-35.52,35.54-13.51,71.18-26.78,106.6-40.59,7.22-2.81,15.11-6.19,20.27-11.61,15.07-15.81,9.93-43.5-13.47-51.96-18.17-6.57-36.22-13.51-54.31-20.3-24.05-9.03-48.1-18.07-72.14-27.13-30.06-11.34-60.11-22.72-90.17-34.08-21.88-8.27-43.77-16.55-65.65-24.81-28.85-10.89-57.7-21.79-86.57-32.65-22-8.27-44.16-16.15-65.98-24.85-11.94-4.76-23.26-6.41-35.6-1.32-15.57,6.42-31.59,11.76-47.36,17.69-32.68,12.3-65.33,24.67-97.99,37.03-24.85,9.41-49.69,18.84-74.53,28.28-22.56,8.58-45.09,17.22-67.65,25.78-23.32,8.85-46.71,17.56-70,26.5-26.49,10.16-52.88,20.59-79.38,30.72-12.28,4.7-22.1,17.12-20.36,29.78Z"/>
    <path d="M672.34,126.92v86.39h-17.39v-56.62c-.2-.09-.4-.18-.59-.26-2.26,6.01-4.63,11.98-6.75,18.03-4.1,11.7-8.16,23.42-12.03,35.2-.99,3-2.42,4.05-5.65,4.03-11.56-.08-11.52,.03-15.25-11.24-4.62-13.96-9.32-27.9-14.02-41.84-.56-1.67-1.33-3.27-2.81-4.72v57.34h-17.62V126.81c8.09,0,16.35-.11,24.59,.15,.97,.03,2.28,2.02,2.75,3.34,6.21,17.79,12.29,35.62,18.79,54.58,3.34-9.03,6.39-17.12,9.34-25.25,3.55-9.79,7.12-19.58,10.44-29.45,.82-2.45,1.82-3.39,4.47-3.32,7.12,.19,14.24,.07,21.72,.07Z"/>
    <path d="M400.06,127.49c5.08,0,9.92-.3,14.69,.15,1.75,.17,3.83,1.75,4.92,3.28,11.08,15.56,21.98,31.26,32.94,46.9,.91,1.3,1.94,2.51,3.58,4.64v-55.31h18.02v86.38c-5.53,0-10.99,.26-16.39-.17-1.51-.12-3.18-2.02-4.24-3.49-11.68-16.32-23.25-32.71-35.53-50.04v53.3h-18V127.49Z"/>
    <path d="M665.75,229.96c25.65,0,43.78,18.16,43.51,43.57-.27,25.81-18.32,43.74-44.2,43.89-24.35,.14-43.19-18.75-43.14-43.27,.05-25.65,18.44-44.19,43.84-44.18Zm.39,16.72c-14.38-.03-24.5,11.28-24.54,27.41-.03,14.95,9.82,26.13,23.3,26.42,14.41,.32,25.47-11.35,25.36-26.75-.12-16.32-9.68-27.05-24.11-27.08Z"/>
    <path d="M505.93,315.59v-84.39c13.67,.6,27.31-.22,40.4,2.07,23.85,4.18,37.19,27.69,30.73,51.49-5.15,18.97-18.08,29.14-40.33,30.71-10.08,.71-20.25,.12-30.8,.12Zm18.02-16.02c12.04,.69,23.72,.67,31.13-10.34,6.71-9.97,6.51-20.8-.04-30.89-7.46-11.49-19.18-11.34-31.09-10.55v51.78Z"/>
    <path d="M483.91,213.36c7.14-18.51,14.15-36.66,21.15-54.81,3.62-9.4,7.28-18.8,10.8-28.24,1-2.68,2.37-3.94,5.44-3.72,4.97,.35,11.11-1.5,14.64,.81,3.45,2.26,4.39,8.51,6.2,13.11,9.5,24.1,18.93,48.23,28.69,73.13-6.79,0-13.16,.04-19.53-.06-.58,0-1.28-.78-1.69-1.36-.47-.66-.68-1.5-.99-2.27-1.9-4.71-2.57-11.17-6.05-13.63-3.35-2.37-9.62-.61-14.61-.63-4.5-.02-9.02-.24-13.49,.13-1.44,.12-3.37,1.58-4,2.94-2.19,4.75-3.91,9.73-5.81,14.62h-20.76Zm43.16-66.37c-3.9,11.26-7.5,21.68-11.16,32.26h22.02c-3.63-10.79-7.09-21.07-10.85-32.26Z"/>
    <path d="M388.78,213.47h-20.76c-1.74-4.7-3.6-9.28-5.11-13.98-.85-2.66-2.22-3.62-5.02-3.56-8.32,.17-16.66-.1-24.97,.22-1.54,.06-3.67,1.78-4.36,3.27-2.09,4.48-2.33,11.16-5.68,13.36-3.65,2.39-9.96,.74-15.11,.83-1.49,.03-2.99,0-5.15,0,2.83-7.7,5.43-15.07,8.24-22.37,7.72-20.06,15.58-40.05,23.2-60.14,1.06-2.8,2.38-4.16,5.36-3.79,.82,.1,1.66,.02,2.5,.01,13.54-.01,13.48,0,18.3,12.49,9.4,24.36,18.87,48.68,28.56,73.66Zm-32.18-33.1c-3.67-10.7-7.24-21.12-11.19-32.65-3.89,11.53-7.41,21.95-11.01,32.65h22.2Z"/>
    <path d="M744.21,196.6v16.77h-55.23V127.04h55.22v16.81h-36.27v17.76h30.4v16.59h-30.34v18.4h36.21Z"/>
    <path d="M241.06,128.59c15,0,29.71-1.02,44.21,.3,13.09,1.2,20.43,11.51,21.04,25.59,.52,12.05-7.6,23.31-19.7,25.95-6.42,1.4-13.18,1.31-19.79,1.8-2.11,.16-4.24,.02-6.62,.02v31.06h-19.14v-84.72Zm18.91,15.97v21.41c3.41,0,6.53,.04,9.65-.01,2.15-.03,4.32-.06,6.46-.3,6.3-.7,10.51-4.94,10.54-10.46,.03-5.26-3.94-9.95-9.89-10.52-5.52-.52-11.14-.11-16.75-.11Z"/>
    <path d="M423.11,231.9h17.44c0,1.91,0,3.68,0,5.44,0,15.83-.01,31.66,0,47.49,.02,10.12,5.11,15.19,15.36,15.38,9.4,.17,15.65-5.79,15.73-15.41,.13-15.66,.03-31.33,.03-46.99v-5.74h17.88c0,1.63,0,3.38,0,5.13,0,16.33-.35,32.67,.1,48.99,.4,14.4-9.74,28.71-28.7,30.38-9.46,.83-18.55-.63-26.59-6.32-7.3-5.17-11.38-12.34-11.56-21.05-.38-18.49-.12-36.99-.1-55.49,0-.47,.2-.93,.4-1.79Z"/>
    <path d="M338.67,253.23c-4.2,.45-7.66,.77-11.1,1.21-3.86,.5-6.81,.9-8.74-4.25-2.71-7.23-14.12-8.43-19.46-2.76-4.14,4.39-3.77,10.09,1.61,13.02,4.41,2.4,9.55,3.43,14.28,5.28,5.06,1.98,10.53,3.46,14.93,6.46,13.74,9.36,13.92,28.04,.83,38.67-18.74,15.21-49.85,5.57-55.83-17.3-.07-.27,.05-.59,.15-1.4,6.22-.67,12.55-1.35,19.18-2.06,2.15,5.64,4.93,11.22,11.82,11.7,3.73,.26,8.02-.24,11.25-1.95,5.4-2.84,5.73-8.97,.77-12.67-3.34-2.49-7.58-3.86-11.54-5.4-5.37-2.09-10.99-3.54-16.26-5.83-9.01-3.91-12.49-11.44-12.27-20.87,.23-9.96,4.22-17.92,13.84-21.64,12.67-4.9,25.28-4.71,37.06,2.87,5.97,3.84,8.54,9.79,9.51,16.92Z"/>
    <path d="M369.78,247.97h-22.87v-15.97h64.48v15.52h-22.41v68.02h-19.2v-67.58Z"/>
    <path d="M590.99,231.84h18.61v83.56h-18.61v-83.56Z"/>
  </g>
</svg>